<svg xmlns="http://www.w3.org/2000/svg" version="1.1" viewBox="-5.0 -10.0 110.0 135.0">
 <g fill-rule="evenodd">
  <path d="m50 8.332c0.69141 0 1.3359 0.34375 1.7227 0.91406l39.586 58.336c0.33203 0.48828 0.44141 1.0977 0.29688 1.6719-0.14453 0.57812-0.52734 1.0625-1.0508 1.3398l-39.586 20.832c-0.60547 0.32031-1.332 0.32031-1.9375 0l-39.586-20.832c-0.52344-0.27734-0.90625-0.76172-1.0508-1.3398-0.14453-0.57422-0.035156-1.1836 0.29688-1.6719l39.586-58.336c0.38672-0.57031 1.0312-0.91406 1.7227-0.91406zm-36.551 59.66 36.551 19.238 36.551-19.238-36.551-53.863z"/>
  <path d="m50 10.418c1.1523 0 2.082 0.92969 2.082 2.082v75c0 1.1523-0.92969 2.082-2.082 2.082s-2.082-0.92969-2.082-2.082v-75c0-1.1523 0.92969-2.082 2.082-2.082z"/>
 </g>
<text x="0.0" y="117.5" font-size="5.0" font-weight="bold" font-family="Arbeit Regular, Helvetica, Arial-Unicode, Arial, Sans-serif" fill="#000000">Created by Norbert Kucsera</text><text x="0.0" y="122.5" font-size="5.0" font-weight="bold" font-family="Arbeit Regular, Helvetica, Arial-Unicode, Arial, Sans-serif" fill="#000000">from Noun Project</text></svg>